# xmcd
# 
# Track frame offsets:
#     150
#     19640
#     40327
#     64017
#     89307
#     109842
#     135867
#     159727
#     184530
#     207695
#     228297
#     269757
# 
# Disc length: 4286
# 
# Revision: 6
# Processed by: cddbd v1.5.2PL0 Copyright (c) Steve Scherf et al.
# Submitted via: BonkEnc v1.0.8
# 
DISCID=a210bc0c
DTITLE=尾崎豊 - 愛すべきものすべてに
DYEAR=1996
DGENRE=JRock
TTITLE0=I LOVE YOU
TTITLE1=OH MY LITTLE GIRL
TTITLE2=Forget-me-not
TTITLE3=黄昏ゆく街で
TTITLE4=路上のルール
TTITLE5=LOVE WAY
TTITLE6=汚れた絆
TTITLE7=15の夜
TTITLE8=Scrambling Rock'n'Roll
TTITLE9=ふたつの心
TTITLE10=卒業
TTITLE11=A
EXTD=YEAR: 1996
EXTT0=
EXTT1=
EXTT2=
EXTT3=
EXTT4=
EXTT5=
EXTT6=
EXTT7=
EXTT8=
EXTT9=
EXTT10=
EXTT11=
PLAYORDER=
